# xmcd
#
# Track frame offsets:
#       150
#       14751
#       29934
#       42596
#       57132
#       70670
#       83776
#       96488
#       108846
#       122985
#       134596
#       148153
#       162833
#       176703
#       190258
#       203566
#
# Disc length: 2903 seconds
#
# Revision: 0
# Processed by: cddbd v1.4PL0 Copyright (c) Steve Scherf et al.
# Submitted via: WhereIsIt 3.20
#
DISCID=f30b5510
DTITLE=Count Basie - The Early Years
DYEAR=1900
DGENRE=
TTITLE0=Blue and Sentimental
TTITLE1=Every Tub
TTITLE2=Swinging The Blues
TTITLE3=Don't You Miss Your Baby
TTITLE4=Doggin' Around
TTITLE5=Now Will You Be Good
TTITLE6=I'II Keep Remembering
TTITLE7=Smarty
TTITLE8=Listen My Children (And You Shall Hear)
TTITLE9=Roseland Shuffle Basie
TTITLE10=Time Out
TTITLE11=Good Morning Blues
TTITLE12=One O'Clock Jump
TTITLE13=Honeysucle Rose
TTITLE14=John's Idea
TTITLE15=Blues In The Dark
EXTD=
EXTT0=
EXTT1=
EXTT2=
EXTT3=
EXTT4=
EXTT5=
EXTT6=
EXTT7=
EXTT8=
EXTT9=
EXTT10=
EXTT11=
EXTT12=
EXTT13=
EXTT14=
EXTT15=
PLAYORDER=
